<?xml version="1.0" encoding="UTF-8"?>
<!-- Generator: Adobe Illustrator 26.0.1, SVG Export Plug-In . SVG Version: 6.00 Build 0)  -->
<svg xmlns="http://www.w3.org/2000/svg" xmlns:xlink="http://www.w3.org/1999/xlink" version="1.1" id="Capa_1" x="0px" y="0px" viewBox="0 0 512 512" style="enable-background:new 0 0 512 512;" xml:space="preserve" width="512" height="512">
<path d="M336.625,109.054C300.598,73.044,266.224,38.716,255.994,0c-10.231,38.716-44.61,73.044-80.631,109.054  C121.331,163.052,60.069,224.251,60.069,316.039C60.053,424.249,147.76,511.983,255.97,512  c108.21,0.016,195.944-87.691,195.961-195.901c0-0.02,0-0.04,0-0.06C451.931,224.257,390.674,163.052,336.625,109.054   M143.346,361.694c-12.014-0.408-56.351-76.83,25.902-158.2l54.43,59.456c1.828,1.806,1.846,4.752,0.04,6.58  c-0.127,0.129-0.262,0.25-0.403,0.363c-12.988,13.321-68.348,68.836-75.229,88.032C146.666,361.887,144.591,361.737,143.346,361.694   M256,462.416c-37.216,0-67.385-30.169-67.386-67.385c0,0,0-0.001,0-0.001c0.249-16.339,6.189-32.08,16.796-44.51  c12.15-14.858,50.581-56.646,50.581-56.646s37.842,42.402,50.49,56.505c11.018,12.248,17.049,28.178,16.904,44.652  C323.386,432.247,293.216,462.416,256,462.416 M384.976,353.141c-1.452,3.176-4.747,8.479-9.194,8.641  c-7.926,0.289-8.773-3.773-14.632-12.443c-12.862-19.034-125.109-136.345-146.104-159.033c-18.467-19.955-2.601-34.023,4.759-41.396  c9.234-9.25,36.187-36.187,36.187-36.187s80.368,76.253,113.846,128.354S391.779,338.263,384.976,353.141"/>















</svg>
