<svg xmlns="http://www.w3.org/2000/svg" viewBox="0 0 94.88 18.37"><title>Megaderma, cuidado y belleza en un solo lugar</title><g id="Capa_2" data-name="Capa 2"><g id="Capa_1-2" data-name="Capa 1"><path class="cls-1" d="M6276.79-1747.62h3.84c0-.82.09-1.77-.62-2.11a2.8,2.8,0,0,0-2.65,0,1.18,1.18,0,0,0-.57,1.18Zm5.81,2h-5.81v.65c0,1.15.4,1.72,1.71,1.78a36.35,36.35,0,0,0,4.08-.26c0,.52,0,1.16,0,1.8,0,.12-.2.3-.34.34a9.85,9.85,0,0,1-5.59,0,2.93,2.93,0,0,1-2.16-2.92c-.06-1.49-.06-3,0-4.48a3.19,3.19,0,0,1,2.74-3.28,9.09,9.09,0,0,1,3,0,3.13,3.13,0,0,1,2.62,3,8,8,0,0,1-.21,3.39" transform="translate(-6258.29 1754.83)"></path><path class="cls-1" d="M6299.58-1745.65a17.07,17.07,0,0,0-2.74.19c-.62.13-.82.67-.79,1.26a1.25,1.25,0,0,0,.68,1.08,2.5,2.5,0,0,0,1.91.13c.69-.24,1-1,1-2.13,0-.14,0-.28-.06-.53m.06-2v-.66c0-1.26-.43-1.72-1.7-1.74a16.39,16.39,0,0,0-3.22.27c0-.63,0-1.24,0-1.84,0-.12.22-.29.37-.32a9.06,9.06,0,0,1,4.79.11,2.83,2.83,0,0,1,2.07,2.84c0,1.55,0,3.11,0,4.67,0,2-.8,3-2.79,3.29a9.91,9.91,0,0,1-3.25-.12,2.64,2.64,0,0,1-2.21-2.47c-.34-2.44.92-4,3.38-4,.81,0,1.63,0,2.53,0" transform="translate(-6258.29 1754.83)"></path><path class="cls-1" d="M6290.29-1747.86c0-1.59-.54-2-2.07-2-.94,0-1.73.36-1.76,1.41-.05,1.32,0,2.64,0,4a1.23,1.23,0,0,0,1.18,1.37,5,5,0,0,0,1.54,0c.82-.15,1.07-.54,1.1-1.35Zm0,6.12a3.62,3.62,0,0,1-3.34.82,3,3,0,0,1-2.69-2.71,33.24,33.24,0,0,1,0-5.28,2.93,2.93,0,0,1,2.84-3,8.31,8.31,0,0,1,2.94.08,3.2,3.2,0,0,1,2.62,3.24v8.95a2.84,2.84,0,0,1-2.2,2.84,10.24,10.24,0,0,1-5.1.11c-.15,0-.38-.21-.39-.33,0-.59,0-1.2,0-1.83a14.11,14.11,0,0,0,3.43.27c1.33,0,1.95-.49,1.95-1.74Z" transform="translate(-6258.29 1754.83)"></path><path class="cls-2" d="M6270.43-1741.22h2.31a44.52,44.52,0,0,0-.49-6.1,48.7,48.7,0,0,0-1.45-6.76c-.08-.26-.07-.31-.22-.33h-2.51l-2.56,8.85-2.54-8.8,0,0h-2.54c-.15,0-.15.07-.22.33a47.3,47.3,0,0,0-1.45,6.76,43,43,0,0,0-.49,6.1h2.31a42,42,0,0,1,.33-5h0c0-.38.09-.76.15-1.13.14-1,.32-2,.52-3l2.65,9.15h2.51l2.64-9.15c.2,1,.38,2,.53,3a45.23,45.23,0,0,1,.49,6.14" transform="translate(-6258.29 1754.83)"></path><path class="cls-2" d="M6325.59-1748.66v7.78h-2.35v-7.78a3.55,3.55,0,0,1,.92-2.71,4.2,4.2,0,0,1,2.82-.83,8.13,8.13,0,0,1,1.63.17v2.21a7.3,7.3,0,0,0-1.62-.16c-1.06,0-1.4.3-1.4,1.32" transform="translate(-6258.29 1754.83)"></path><path class="cls-2" d="M6332-1748.48v7.6h-2.35v-7.6q0-3.72,4.08-3.72a3.46,3.46,0,0,1,2.9,1.18,3.46,3.46,0,0,1,2.89-1.18c2.56,0,4,1,4,3.72v7.6h-2.33v-7.6c0-1.23-.53-1.5-1.7-1.5s-1.77.26-1.77,1.5v7.6h-2.28v-7.6c0-1.26-.63-1.5-1.74-1.5s-1.73.29-1.73,1.5" transform="translate(-6258.29 1754.83)"></path><path class="cls-1" d="M6350.76-1745.65a17.19,17.19,0,0,0-2.75.19c-.62.13-.82.67-.79,1.26a1.26,1.26,0,0,0,.69,1.08,2.48,2.48,0,0,0,1.9.13c.7-.24,1-1,1-2.13a4.72,4.72,0,0,0-.05-.53m.06-2v-.66c0-1.26-.43-1.72-1.7-1.74a16.32,16.32,0,0,0-3.22.27c0-.63,0-1.24,0-1.84,0-.12.22-.29.36-.32a9.05,9.05,0,0,1,4.79.11,2.82,2.82,0,0,1,2.07,2.84c0,1.55,0,3.11,0,4.67,0,2-.8,3-2.79,3.29a9.89,9.89,0,0,1-3.25-.12,2.62,2.62,0,0,1-2.21-2.47c-.34-2.44.92-4,3.37-4,.82,0,1.64,0,2.54,0" transform="translate(-6258.29 1754.83)"></path><path class="cls-1" d="M6309.46-1745.11c.07,1.59-.55,2-2.11,2a2.8,2.8,0,0,1-.56-.08c-.83-.15-1.2-.49-1.23-1.32,0-1.33,0-2.65,0-4a1.23,1.23,0,0,1,1.2-1.37,5.1,5.1,0,0,1,1.56,0,1.22,1.22,0,0,1,1.12,1.36c0,1.11,0,2.22,0,3.33m0-9.72v3.63a3.76,3.76,0,0,0-3.43-.85,3,3,0,0,0-2.73,2.72,32,32,0,0,0,0,5.27,3,3,0,0,0,2.88,3,8.58,8.58,0,0,0,3-.08,3.24,3.24,0,0,0,2.69-3.24c.07-3.49,0-7,0-10.48Z" transform="translate(-6258.29 1754.83)"></path><path class="cls-1" d="M6315.69-1747.62h3.84c0-.82.09-1.77-.62-2.11a2.8,2.8,0,0,0-2.65,0,1.18,1.18,0,0,0-.57,1.18Zm5.81,2h-5.81v.65c0,1.15.39,1.72,1.71,1.78a36.35,36.35,0,0,0,4.08-.26c0,.52,0,1.16,0,1.8a.54.54,0,0,1-.35.34,9.81,9.81,0,0,1-5.58,0,2.93,2.93,0,0,1-2.16-2.92c-.06-1.49-.06-3,0-4.48a3.19,3.19,0,0,1,2.74-3.28,9.09,9.09,0,0,1,3,0,3.11,3.11,0,0,1,2.61,3,8,8,0,0,1-.2,3.39" transform="translate(-6258.29 1754.83)"></path></g></g></svg>