<?xml version="1.0" standalone="no"?>
<!DOCTYPE svg PUBLIC "-//W3C//DTD SVG 20010904//EN"
 "http://www.w3.org/TR/2001/REC-SVG-20010904/DTD/svg10.dtd">
<svg version="1.0" xmlns="http://www.w3.org/2000/svg"
 width="1531.000000pt" height="1396.000000pt" viewBox="0 0 1531.000000 1396.000000"
 preserveAspectRatio="xMidYMid meet">

<g transform="translate(0.000000,1396.000000) scale(0.100000,-0.100000)"
fill="#000000" stroke="none">
<path d="M5603 13297 c2 -7 30 -95 60 -197 31 -102 119 -390 197 -640 77 -250
140 -462 140 -471 0 -9 -12 -22 -27 -27 -16 -6 -125 -46 -243 -90 -579 -214
-1350 -497 -1755 -642 -247 -89 -456 -166 -464 -170 -18 -9 54 -46 527 -271
582 -277 1062 -512 1062 -519 0 -8 -269 -238 -1030 -885 -673 -571 -754 -640
-898 -765 l-132 -115 42 -8 c24 -5 246 -7 493 -4 248 2 658 1 911 -2 l462 -6
-85 -235 c-198 -548 -367 -1020 -559 -1560 -113 -316 -226 -633 -251 -703 -25
-70 -43 -130 -41 -133 3 -2 79 33 169 78 l164 83 110 247 c61 136 125 285 144
330 60 147 416 975 534 1243 62 143 146 335 186 426 l72 166 207 144 c114 78
290 202 392 274 102 72 251 178 332 235 81 57 146 105 144 107 -2 2 -52 -10
-112 -26 -60 -16 -340 -93 -622 -170 l-513 -141 -604 0 c-333 0 -605 4 -605 8
0 14 52 58 725 619 363 302 703 586 756 631 l96 82 619 151 c340 84 732 180
869 213 138 34 246 64 240 67 -10 6 -54 5 -1223 -36 -401 -14 -712 -21 -725
-16 -31 12 -919 450 -926 457 -8 8 13 19 102 49 174 59 679 239 1067 380 223
81 425 154 450 162 45 15 46 15 160 -30 63 -24 207 -79 320 -120 113 -42 235
-87 273 -101 37 -14 70 -26 73 -26 8 0 -55 69 -296 326 l-206 219 -98 310
c-53 171 -121 385 -150 478 -30 92 -50 169 -46 172 8 5 74 -16 1335 -435 528
-175 1073 -355 1210 -400 138 -45 583 -191 990 -325 407 -134 803 -264 880
-288 l140 -44 18 -53 c43 -129 120 -398 121 -424 1 -27 -3 -30 -149 -87 -182
-71 -199 -79 -194 -84 2 -2 119 -32 261 -68 l256 -65 224 -173 c204 -158 545
-421 951 -733 405 -310 492 -378 495 -385 2 -7 -131 -21 -350 -37 -49 -4 -88
-11 -88 -17 0 -12 106 -155 219 -297 42 -52 82 -102 89 -112 11 -14 3 -36 -49
-145 -34 -70 -121 -252 -193 -403 -72 -151 -136 -282 -141 -292 -9 -14 -69
-17 -599 -27 -325 -6 -592 -13 -594 -16 -8 -8 -132 -480 -130 -492 2 -6 80 44
173 113 l170 124 432 0 c237 0 434 -4 437 -8 9 -15 77 -434 73 -447 -3 -6 -40
-34 -84 -60 -43 -27 -187 -117 -319 -201 -133 -84 -251 -157 -263 -163 -23
-13 -54 -1 -336 134 -281 135 -404 189 -595 262 -259 99 -722 264 -731 261 -4
-2 152 -106 347 -233 195 -126 446 -290 557 -364 324 -214 698 -453 718 -458
18 -5 235 124 714 425 127 80 256 161 288 181 38 24 57 43 57 56 0 11 -23 161
-51 333 l-51 312 132 283 c145 309 346 733 505 1067 56 118 105 224 109 236 5
18 -16 38 -141 137 -82 63 -218 171 -303 238 -491 389 -1473 1147 -1496 1156
-20 7 -29 39 -140 478 -58 231 -109 423 -112 427 -7 6 -72 26 -717 223 -209
64 -465 143 -570 175 -190 59 -613 186 -1290 390 -198 60 -542 161 -765 225
-223 64 -508 147 -635 185 -393 117 -1223 358 -1283 373 -16 4 -22 2 -19 -6z"/>
<path d="M8410 9777 c-471 -342 -1232 -940 -1990 -1565 -190 -157 -347 -286
-349 -288 -4 -3 44 -222 358 -1639 l188 -850 162 -520 c89 -286 164 -524 166
-530 7 -15 1 30 -95 765 -113 861 -122 928 -220 1700 -45 349 -87 678 -95 730
l-14 94 57 61 c31 33 172 182 313 330 524 554 1132 1209 1668 1798 13 15 21
27 15 27 -5 -1 -79 -51 -164 -113z"/>
<path d="M9390 8459 c-41 -28 -176 -120 -300 -204 -124 -84 -267 -181 -317
-216 -51 -35 -132 -91 -180 -124 -267 -184 -530 -369 -545 -383 -20 -19 -14
-41 142 -552 77 -252 190 -628 303 -1010 l52 -174 280 -108 c154 -60 458 -179
675 -266 l395 -157 360 -2 360 -2 -739 367 c-406 202 -770 383 -809 402 l-70
35 -54 170 c-219 693 -230 728 -354 1135 l-28 95 23 25 c12 14 90 102 172 195
81 94 200 229 264 300 64 72 183 207 264 300 82 94 160 182 174 198 38 41 16
33 -68 -24z"/>
<path d="M3095 3136 c-135 -44 -234 -130 -292 -253 -33 -68 -38 -89 -41 -169
-7 -152 37 -263 146 -366 100 -96 193 -132 336 -130 133 2 220 37 313 125 247
234 159 652 -164 778 -72 28 -235 36 -298 15z m234 -34 c90 -55 141 -204 141
-417 0 -267 -78 -426 -221 -450 -111 -19 -210 79 -245 244 -19 91 -18 304 2
394 30 135 91 220 181 253 47 17 85 10 142 -24z"/>
<path d="M1821 3124 c89 -28 84 -4 84 -444 l0 -388 -24 -26 c-15 -16 -41 -29
-65 -33 l-41 -7 45 -7 c71 -12 420 -11 420 1 0 6 -9 10 -19 10 -11 0 -33 11
-48 24 l-28 24 -3 183 c-3 142 0 184 10 190 18 12 75 11 120 -1 36 -10 38 -13
63 -98 57 -186 138 -308 221 -331 47 -13 211 -15 218 -2 3 5 -9 12 -28 15 -66
13 -91 52 -170 267 -25 68 -77 124 -137 147 l-51 19 47 18 c97 37 155 114 155
207 0 103 -69 187 -183 225 -43 14 -101 17 -342 19 -266 3 -286 2 -244 -12z
m484 -24 c52 -49 72 -218 40 -327 -23 -76 -59 -103 -140 -103 l-64 0 -3 231
-3 231 73 -4 c58 -4 77 -10 97 -28z"/>
<path d="M3800 3124 c19 -8 42 -18 50 -23 37 -20 40 -47 40 -428 l0 -371 -26
-31 c-15 -19 -39 -33 -62 -38 l-37 -7 40 -7 c60 -12 215 -11 215 1 0 6 -7 10
-15 10 -31 0 -73 30 -89 64 -14 29 -16 80 -16 372 0 324 1 337 18 318 9 -10
165 -187 345 -391 181 -205 333 -373 338 -373 7 0 8 133 3 398 l-7 397 23 38
c13 21 41 48 64 60 l41 22 -68 3 c-37 2 -96 2 -130 0 l-62 -3 44 -16 c81 -28
82 -30 79 -312 l-3 -247 -227 257 c-124 142 -241 273 -258 291 l-32 32 -152
-1 c-141 -1 -149 -2 -116 -15z"/>
<path d="M4820 3135 c0 -2 18 -9 39 -15 22 -6 49 -22 60 -37 20 -25 21 -38 21
-405 0 -241 -4 -386 -10 -399 -13 -22 -60 -49 -92 -50 -14 -1 -7 -5 17 -10 58
-11 215 -11 215 1 0 6 -9 10 -19 10 -30 0 -80 48 -91 88 -7 24 -10 152 -8 361
l3 324 344 -392 c190 -215 348 -391 353 -391 9 0 11 310 2 334 -3 9 -9 14 -13
12 -3 -2 -120 127 -260 285 l-255 289 -153 0 c-84 0 -153 -2 -153 -5z"/>
<path d="M5530 3130 c8 -5 23 -10 32 -10 27 0 78 -49 78 -76 0 -34 14 -30 33
12 12 25 30 41 57 52 22 10 40 20 40 25 0 4 -57 7 -127 7 -87 0 -123 -3 -113
-10z"/>
<path d="M5915 3130 c3 -5 13 -10 21 -10 28 0 92 -39 113 -69 12 -17 71 -116
131 -221 l110 -192 0 -160 c0 -123 -3 -166 -15 -188 -17 -32 -60 -59 -97 -61
-14 -1 -7 -5 17 -10 58 -12 432 -11 440 1 3 6 -3 10 -15 10 -33 0 -75 26 -88
55 -8 17 -12 86 -12 197 l0 170 72 132 c112 205 149 267 157 262 5 -3 19 6 32
21 13 14 43 34 67 44 23 10 42 21 42 24 0 3 -57 5 -127 4 l-128 0 43 -19 c37
-17 42 -23 42 -51 0 -42 -209 -428 -221 -408 -4 8 -55 97 -113 198 -58 102
-106 194 -106 205 0 12 14 33 32 48 l33 27 -218 1 c-143 0 -216 -3 -212 -10z"/>
<path d="M7733 3121 c27 -11 55 -28 63 -38 11 -14 13 -92 14 -401 0 -244 -4
-390 -10 -403 -13 -22 -60 -49 -92 -50 -14 -1 -7 -5 17 -10 58 -12 412 -11
420 1 4 6 -5 10 -20 10 -14 0 -37 11 -50 25 -25 24 -25 26 -25 209 l0 186 26
6 c34 9 116 -3 130 -19 6 -6 26 -57 44 -112 40 -124 70 -184 118 -237 56 -62
99 -78 214 -78 54 0 100 4 103 10 3 6 -4 10 -17 10 -34 0 -82 33 -107 73 -12
20 -35 75 -51 123 -51 150 -89 198 -178 225 l-43 13 52 19 c138 52 195 196
126 319 -24 44 -73 80 -148 111 -50 20 -73 22 -344 24 l-290 3 48 -19z m452
-5 c40 -17 58 -49 75 -131 21 -103 -2 -234 -51 -286 -25 -26 -33 -29 -93 -29
l-65 0 -3 230 -3 230 53 0 c29 0 68 -6 87 -14z"/>
<path d="M8790 3130 c8 -5 23 -10 32 -10 9 0 30 -12 47 -26 l31 -26 0 -388 0
-387 -26 -26 c-14 -15 -43 -30 -63 -34 l-36 -7 40 -7 c57 -11 435 -11 435 0 0
5 -16 12 -35 15 -19 4 -43 18 -55 33 -19 25 -20 38 -20 404 l0 377 26 31 c14
17 31 31 37 31 7 0 21 7 31 15 18 13 -7 15 -220 15 -158 0 -234 -4 -224 -10z"/>
<path d="M9400 3129 c61 -25 95 -46 112 -69 10 -14 100 -205 201 -425 106
-232 189 -401 197 -403 18 -3 114 206 116 252 1 17 -1 24 -6 16 -10 -16 -4
-28 -140 270 -62 135 -114 261 -117 281 -4 31 -1 39 27 62 l32 27 -224 -1
c-160 0 -216 -3 -198 -10z"/>
<path d="M10205 3125 c45 -32 47 -37 43 -85 -3 -30 -34 -110 -86 -225 -45 -98
-80 -180 -78 -182 1 -2 39 74 82 169 73 159 84 178 146 241 37 37 74 67 82 67
9 0 16 4 16 9 0 5 8 12 18 14 9 3 -41 5 -113 6 -115 0 -128 -1 -110 -14z"/>
<path d="M10530 3130 c8 -5 23 -10 32 -10 9 0 30 -12 47 -26 l31 -26 0 -388 0
-388 -24 -23 c-14 -13 -42 -29 -63 -35 l-38 -11 65 -7 c36 -4 213 -5 394 -4
l329 3 13 45 c8 25 19 72 24 105 6 33 13 69 16 80 3 11 -10 -7 -28 -39 -63
-114 -168 -170 -316 -171 -80 0 -85 1 -108 28 -24 29 -24 29 -22 230 l3 202
50 3 c118 8 195 -30 195 -95 0 -22 2 -25 10 -13 11 17 11 171 0 215 -6 25 -8
26 -9 7 -1 -32 -28 -79 -50 -92 -11 -5 -60 -10 -110 -10 l-90 0 -3 210 -3 210
45 0 c58 0 170 -24 216 -46 55 -26 100 -76 123 -136 l20 -53 0 40 c0 47 -22
175 -33 193 -5 9 -98 12 -369 12 -237 0 -357 -4 -347 -10z"/>
<path d="M11508 3118 c84 -32 83 -25 80 -453 -3 -351 -4 -365 -24 -392 -14
-18 -36 -32 -65 -39 l-44 -11 49 -6 c78 -11 404 -8 411 3 4 6 -5 10 -20 10
-14 0 -37 11 -50 25 -25 24 -25 26 -25 209 l0 186 26 6 c32 8 113 -2 130 -17
8 -6 23 -43 35 -83 29 -99 89 -224 130 -270 52 -59 97 -76 211 -76 54 0 100 4
103 10 3 6 -4 10 -17 10 -33 0 -82 33 -106 71 -11 19 -34 75 -52 124 -52 150
-100 210 -183 231 -27 6 -26 8 34 38 77 39 116 85 130 156 22 105 -20 186
-121 238 -93 46 -142 52 -429 51 l-256 0 53 -21z m447 -2 c58 -24 79 -80 80
-206 0 -180 -37 -240 -151 -240 l-63 0 -3 230 -3 230 53 0 c29 0 68 -6 87 -14z"/>
<path d="M13050 2963 c-83 -185 -94 -213 -52 -135 l28 54 82 -179 c45 -98 82
-181 82 -185 0 -5 -75 -8 -166 -8 -193 0 -180 -18 -103 148 27 58 48 107 46
109 -3 2 -47 -89 -98 -203 -114 -252 -176 -331 -261 -335 -58 -3 67 -18 152
-18 l95 -1 -32 26 c-29 23 -33 31 -33 75 0 29 10 75 26 114 l26 65 183 0 182
0 42 -96 c49 -109 48 -138 0 -158 l-31 -13 38 -6 c59 -10 394 -8 394 2 0 5
-16 12 -35 15 -67 13 -90 51 -254 412 -197 433 -221 484 -229 484 -4 0 -41
-75 -82 -167z"/>
<path d="M10052 2575 c-30 -62 -27 -71 4 -12 14 27 24 51 22 53 -3 2 -14 -17
-26 -41z"/>
<path d="M5591 1606 c-7 -8 -11 -27 -9 -43 3 -24 8 -28 33 -28 25 0 30 4 33
28 4 30 -12 57 -33 57 -7 0 -18 -6 -24 -14z"/>
<path d="M4520 1310 l0 -290 35 0 35 0 0 125 0 125 120 0 120 0 0 30 0 30
-120 0 -120 0 0 105 0 105 130 0 130 0 0 30 0 30 -165 0 -165 0 0 -290z"/>
<path d="M6459 1513 c-12 -38 -21 -51 -47 -62 -39 -18 -39 -45 -1 -49 l27 -3
4 -153 c3 -125 7 -158 22 -180 25 -39 79 -59 133 -51 37 5 43 10 43 31 0 22
-4 24 -45 24 -32 0 -51 6 -65 20 -18 18 -20 33 -20 165 l0 144 63 3 c59 3 62
4 62 28 0 24 -3 25 -62 28 l-63 3 0 49 c0 42 -3 50 -18 50 -13 0 -23 -14 -33
-47z"/>
<path d="M5587 1454 c-4 -4 -7 -103 -7 -221 l0 -213 35 0 35 0 -2 218 -3 217
-25 3 c-14 2 -29 0 -33 -4z"/>
<path d="M7380 1240 l0 -220 30 0 30 0 0 128 c0 187 17 232 94 253 51 14 110
-2 128 -34 8 -14 14 -80 16 -184 l4 -163 29 0 29 0 0 165 c0 187 -8 222 -62
255 -58 35 -165 25 -215 -21 l-21 -21 -7 31 c-5 24 -12 31 -31 31 l-24 0 0
-220z"/>
<path d="M8615 1446 c-84 -37 -129 -155 -105 -273 23 -109 119 -173 237 -159
82 10 103 21 103 55 l0 29 -47 -15 c-72 -22 -146 -13 -183 22 -30 29 -56 97
-45 115 4 6 68 10 152 10 l145 0 -4 59 c-5 72 -40 130 -91 154 -42 20 -120 21
-162 3z m152 -69 c13 -13 26 -40 30 -60 l6 -37 -116 0 -116 0 9 29 c14 49 31
72 63 87 42 19 95 11 124 -19z"/>
<path d="M9673 1445 c-68 -29 -88 -113 -38 -165 15 -16 63 -43 107 -61 85 -34
114 -63 104 -102 -3 -13 -17 -29 -31 -35 -34 -16 -121 -14 -167 2 l-38 14 0
-29 c0 -40 30 -53 125 -53 122 0 175 37 175 121 0 58 -27 86 -125 128 -43 19
-87 41 -97 49 -22 19 -23 59 -3 76 24 20 95 23 148 7 44 -14 48 -14 57 3 6 10
10 23 10 29 0 29 -170 41 -227 16z"/>
<path d="M10713 1445 c-68 -29 -88 -113 -38 -165 15 -16 63 -43 107 -61 85
-34 114 -63 104 -102 -3 -13 -17 -29 -31 -35 -34 -16 -121 -14 -167 2 l-38 14
0 -29 c0 -40 30 -53 125 -53 122 0 175 37 175 121 0 58 -27 86 -125 128 -43
19 -87 41 -97 49 -22 19 -23 59 -3 76 24 20 95 23 148 7 44 -14 48 -14 57 3 6
10 10 23 10 29 0 29 -170 41 -227 16z"/>
<path d="M12150 1372 c0 -18 33 -19 812 -25 1286 -11 1350 -10 1346 11 -3 16
-43 17 -608 23 -333 3 -818 7 -1077 8 -453 1 -473 0 -473 -17z"/>
<path d="M1192 1333 c3 -17 43 -18 608 -24 333 -3 818 -7 1078 -8 452 -1 472
0 472 17 0 18 -33 19 -812 25 -1286 11 -1350 10 -1346 -10z"/>
</g>
</svg>
